HIERARCHY
ROOT root
{
	OFFSET	0	13.1	24.9
	CHANNELS 6  Xposition Yposition Zposition Xrotation Yrotation Zrotation
	JOINT spine_1
	{
		OFFSET	0	9.99999	0
		CHANNELS 3  Xrotation Yrotation Zrotation
		JOINT spine_2
		{
			OFFSET	0	112	-10
			CHANNELS 3  Xrotation Yrotation Zrotation
			JOINT spine_3
			{
				OFFSET	0	206.5	19.3
				CHANNELS 3  Xrotation Yrotation Zrotation
				JOINT spine_4
				{
					OFFSET	0	110.4	14.6
					CHANNELS 3  Xrotation Yrotation Zrotation
					JOINT neck_1
					{
						OFFSET	0	71.8	-50.3
						CHANNELS 3  Xrotation Yrotation Zrotation
						JOINT neck_2
						{
							OFFSET	0	86.2	-25.8
							CHANNELS 3  Xrotation Yrotation Zrotation
							JOINT head_ee
							{
								OFFSET	0	179.8	-8.7
								CHANNELS 3  Xrotation Yrotation Zrotation
								End Site
								{
									OFFSET	1	0	0
								}
							}
						}
					}
					JOINT left_clavicle
					{
						OFFSET	-43.2	22.4	-70.8
						CHANNELS 3  Xrotation Yrotation Zrotation
						JOINT left_shoulder
						{
							OFFSET	-93.9	-5.79999	48.7
							CHANNELS 3  Xrotation Yrotation Zrotation
							JOINT left_elbow
							{
								OFFSET	-291.4	-30.8	15.2
								CHANNELS 3  Xrotation Yrotation Zrotation
								JOINT left_lowarm_twist
								{
									OFFSET	-110.7	-3.89999	13.6
									CHANNELS 3  Xrotation Yrotation Zrotation
									JOINT left_hand
									{
										OFFSET	-110.7	-3.89999	13.6
										CHANNELS 3  Xrotation Yrotation Zrotation
										JOINT left_ee
										{
											OFFSET	-80.8	-5.10001	12.1
											CHANNELS 3  Xrotation Yrotation Zrotation
											End Site
											{
												OFFSET	1	0	0
											}
										}
									}
								}
							}
						}
					}
					JOINT right_clavicle
					{
						OFFSET	43.2	22.4	-70.8
						CHANNELS 3  Xrotation Yrotation Zrotation
						JOINT right_shoulder
						{
							OFFSET	93.9	-5.79999	48.7
							CHANNELS 3  Xrotation Yrotation Zrotation
							JOINT right_elbow
							{
								OFFSET	291.4	-30.8	15.2
								CHANNELS 3  Xrotation Yrotation Zrotation
								JOINT right_lowarm_twist
								{
									OFFSET	110.7	-3.89999	13.6
									CHANNELS 3  Xrotation Yrotation Zrotation
									JOINT right_hand
									{
										OFFSET	110.7	-3.89999	13.6
										CHANNELS 3  Xrotation Yrotation Zrotation
										JOINT right_ee
										{
											OFFSET	80.8	-5.10001	12.1
											CHANNELS 3  Xrotation Yrotation Zrotation
											End Site
											{
												OFFSET	1	0	0
											}
										}
									}
								}
							}
						}
					}
				}
			}
		}
	}
	JOINT left_hip
	{
		OFFSET	-82.8	-127.5	0.300001
		CHANNELS 3  Xrotation Yrotation Zrotation
		JOINT left_knee
		{
			OFFSET	-28.2	-396.7	2.2
			CHANNELS 3  Xrotation Yrotation Zrotation
			JOINT left_ankle
			{
				OFFSET	-11.7	-411.3	35.4
				CHANNELS 3  Xrotation Yrotation Zrotation
				JOINT left_toes
				{
					OFFSET	0	-60	-88.6
					CHANNELS 3  Xrotation Yrotation Zrotation
					JOINT left_foot_ee
					{
						OFFSET	-22.5	-16.5	-42.2
						CHANNELS 3  Xrotation Yrotation Zrotation
						End Site
						{
							OFFSET	1	0	0
						}
					}
				}
			}
		}
	}
	JOINT right_hip
	{
		OFFSET	82.8	-127.5	0.300001
		CHANNELS 3  Xrotation Yrotation Zrotation
		JOINT right_knee
		{
			OFFSET	28.2	-396.7	2.2
			CHANNELS 3  Xrotation Yrotation Zrotation
			JOINT right_ankle
			{
				OFFSET	11.7	-411.3	35.4
				CHANNELS 3  Xrotation Yrotation Zrotation
				JOINT right_toes
				{
					OFFSET	0	-60	-88.6
					CHANNELS 3  Xrotation Yrotation Zrotation
					JOINT right_foot_ee
					{
						OFFSET	22.5	-16.5	-42.2
						CHANNELS 3  Xrotation Yrotation Zrotation
						End Site
						{
							OFFSET	1	0	0
						}
					}
				}
			}
		}
	}
}
MOTION
Frames: 7
Frame Time: 0.02
1372.05 701.618 -1475.22 2.51915649859 39.2586575997 2.22159377114 -3.29663 -0.337602 -0.917951 -3.2962 -0.278509 -0.937571 -3.29084 -0.0191457 -0.977872 -3.29213 -0.173335 -0.962578 2.45582 9.09893 -0.682387 2.73201 16.5136 -0.0916018 -0.0 0.0 -0.0 7.60908 -18.7671 14.2039 10.8479 -14.9024 45.7305 3.31761 -58.6669 1.86466 -5.98093 -0.248732 0.722622 0.287949 6.52843 4.60545 -0.0 0.0 -0.0 5.67494 -5.99976 -11.0497 -13.335 17.0399 -64.2972 0.435523 12.1749 -0.0464478 21.7385 -0.247054 2.74929 0.129513 -15.7538 -7.24033 0.0 0.0 0.0 -11.7305 -25.8109 4.40449 -18.4194 0.311101 2.79734 42.1874 22.228 -5.28541 -14.9635 0.0 0.0 -0.0 0.0 -0.0 31.8683 3.34696 -11.4409 -4.23056 -0.15092 -0.631575 -16.8951 -13.8969 -2.54642 -33.046 0.0 0.0 0.0 0.0 0.0 
1334.52614575 700.546 -1521.76822083 4.43992205904 43.1435302604 0.391982587826 -3.61893 -0.250113 -1.2008 -3.61815 -0.173202 -1.21427 -3.6132 0.162828 -1.21571 -3.61527 -0.0311992 -1.22617 2.87381 9.83788 -0.293692 3.18697 17.4288 0.339886 -0.0 0.0 -0.0 8.00307 -18.028 15.1188 7.89635 -16.1861 47.4568 2.91136 -55.2523 1.52395 -8.6062 -0.381501 1.03096 0.783338 5.97913 7.64221 -0.0 0.0 -0.0 5.90787 -5.54301 -11.482 -12.0616 17.0407 -64.0458 0.500099 13.9142 -0.0610246 21.2749 -0.252732 2.69035 0.00617657 -16.4797 -6.75785 0.0 0.0 0.0 -13.4167 -24.3717 3.7548 -23.1377 0.245199 3.51812 41.6353 19.737 -5.17055 -10.8793 0.0 0.0 -0.0 0.0 -0.0 28.7696 2.51106 -9.71248 -7.56031 -0.236654 -1.13531 -21.1783 -12.69 -3.19263 -33.6051 0.0 0.0 0.0 0.0 0.0 
1306.78732685 701.497 -1543.53791927 6.10927123742 44.723028541 -2.03537349136 -3.83013 -0.239328 -1.04973 -3.82953 -0.17205 -1.06283 -3.82531 0.126791 -1.06917 -3.8269 -0.0436458 -1.07578 3.46281 9.78315 0.396983 3.75292 16.6657 1.04919 -0.0 0.0 -0.0 8.53431 -17.5095 16.3192 6.26638 -14.7984 49.5143 2.61439 -52.3178 1.28428 -13.3845 -0.65894 1.57552 -0.0414506 8.15913 3.12428 -0.0 0.0 -0.0 6.0411 -5.06337 -11.7318 -11.6485 16.8255 -63.2927 0.4741 13.2169 -0.0549264 24.1205 -0.210362 3.05133 0.76216 -15.9665 -11.2726 0.0 0.0 0.0 -12.6294 -19.0401 5.59283 -25.5899 0.187567 3.89 40.2845 21.3652 -5.08853 -9.88599 0.0 0.0 -0.0 0.0 -0.0 26.934 2.78349 -7.72877 -12.6801 -0.311029 -1.91714 -13.9146 -10.6375 -2.08489 -33.3715 0.0 0.0 0.0 0.0 0.0 
1279.39689931 705.569 -1563.45609654 9.03412659528 45.785627371 -5.1914679346 -4.21744 -0.144996 -0.908116 -4.21699 -0.0869189 -0.915501 -4.21484 0.174285 -0.902953 -4.21598 0.0294996 -0.919144 3.36171 9.22097 1.6701 3.56931 14.6102 2.46161 -0.0 0.0 -0.0 8.59588 -17.3749 16.4631 3.85494 -15.2045 51.041 2.32828 -49.0667 1.06281 -14.3908 -0.723114 1.68717 0.425865 3.75144 4.38693 -0.0 0.0 -0.0 6.35804 -4.47969 -12.3311 -10.9558 18.2159 -62.4852 0.442515 12.3644 -0.0479335 22.294 -0.239621 2.81985 0.189883 -18.4546 -8.63969 0.0 0.0 0.0 -11.9397 -18.9521 7.0102 -30.9686 0.0057476 4.69515 40.9079 20.3272 -5.11953 -7.29415 0.0 0.0 -0.0 0.0 -0.0 22.4576 2.54907 -6.12687 -15.78 -0.32202 -2.39257 -3.84795 -5.92125 -0.568448 -30.0612 0.0 0.0 0.0 0.0 0.0 
1260.54542644 710.909 -1576.07551931 10.556483973 45.8397365754 -7.49132424179 -4.38192 -0.035567 -0.778545 -4.38158 0.0140444 -0.779231 -4.38128 0.234974 -0.743093 -4.38203 0.114671 -0.770875 1.02436 8.35252 1.36295 1.16891 13.6553 2.24983 -0.0 0.0 -0.0 9.1541 -16.7328 17.732 1.78644 -14.0919 51.372 2.00211 -44.7587 0.824436 -14.0743 -0.702716 1.65217 0.49338 3.36509 4.67708 -0.0 0.0 -0.0 6.80756 -4.30972 -13.1856 -9.78159 20.8706 -60.1412 0.542298 15.037 -0.0715736 24.3172 -0.206772 3.0762 0.678565 -17.9292 -11.4514 0.0 0.0 0.0 -11.4645 -17.3339 8.35393 -34.3455 -0.146755 5.19079 39.0071 20.2324 -4.94102 -5.83093 0.0 0.0 -0.0 0.0 -0.0 19.6588 3.02229 -4.54032 -14.5218 -0.32066 -2.19952 -7.87167 -5.21209 -1.17203 -36.9165 0.0 0.0 0.0 0.0 0.0 
1262.86181882 710.909 -1578.57882541 10.3193431841 44.5614903847 -7.15714588832 -4.38192 -0.035567 -0.778545 -4.38158 0.0140444 -0.779231 -4.38128 0.234974 -0.743093 -4.38203 0.114671 -0.770875 1.02436 8.35252 1.36295 1.16891 13.6553 2.24983 -0.0 0.0 -0.0 9.1541 -16.7328 17.732 1.78644 -14.0919 51.372 2.00211 -44.7587 0.824436 -14.0743 -0.702716 1.65217 0.49338 3.36509 4.67708 -0.0 0.0 -0.0 6.80756 -4.30972 -13.1856 -9.78159 20.8706 -60.1412 0.542298 15.037 -0.0715736 24.3172 -0.206772 3.0762 0.678565 -17.9292 -11.4514 0.0 0.0 0.0 -11.4645 -17.3339 8.35393 -34.3455 -0.146755 5.19079 39.0071 20.2324 -4.94102 -5.83093 0.0 0.0 -0.0 0.0 -0.0 19.6588 3.02229 -4.54032 -14.5218 -0.32066 -2.19952 -7.87167 -5.21209 -1.17203 -36.9165 0.0 0.0 0.0 0.0 0.0 
1211.87786734 714.969 -1607.92041416 14.3574675384 44.7551458645 -11.0326452659 -5.20657 0.060777 -0.64816 -5.20634 0.101897 -0.642979 -5.20719 0.288911 -0.583385 -5.20761 0.193152 -0.62169 4.43507 8.94152 1.01193 4.66451 14.541 1.61737 -0.0 0.0 -0.0 9.62048 -16.5186 18.7765 -1.49916 -13.4046 53.1088 1.35198 -33.8097 0.410905 -15.0353 -0.765246 1.75809 -0.235542 0.411974 -1.39771 -0.0 0.0 -0.0 7.31959 -2.0368 -14.2069 -7.07665 24.4103 -58.1272 0.566044 15.6638 -0.0778599 25.1342 -0.190944 3.17936 1.0212 -15.906 -12.8865 0.0 0.0 0.0 -6.32776 -12.8004 8.8097 -47.591 -1.0189 7.02629 36.4764 24.2666 -4.7953 -0.643649 0.0 0.0 -0.0 0.0 -0.0 12.6019 5.16894 -3.89752 -19.448 -0.301798 -2.95488 12.4654 5.27072 1.80224 -37.1077 0.0 0.0 0.0 0.0 0.0 
